<svg xmlns="http://www.w3.org/2000/svg" viewBox="0 0 24 24"><defs><style>.cls-1{fill:#fff;opacity:0;}.cls-2{fill:#d46a42;}</style></defs><title>aide</title><g id="Calque_2" data-name="Calque 2"><g id="aide"><rect class="cls-1" width="24" height="24"/><path class="cls-2" d="M12,2A10,10,0,1,0,22,12,10,10,0,0,0,12,2Zm-.73,16a1.87,1.87,0,0,1-1.2-.33,1.2,1.2,0,0,1-.4-1A5,5,0,0,1,10,15.37l1-2.95a1.82,1.82,0,0,0,.12-.44.18.18,0,0,0-.2-.2q-.43,0-1,1.11H9.11c.73-1.59,1.77-2.38,3.1-2.38a1.6,1.6,0,0,1,1.1.35,1.17,1.17,0,0,1,.4,1,5,5,0,0,1-.35,1.41l-1,2.7a2.88,2.88,0,0,0-.22.71.19.19,0,0,0,.06.15.25.25,0,0,0,.16,0c.14,0,.33-.13.56-.39a3.18,3.18,0,0,0,.53-.73h.86C13.59,17.26,12.57,18,11.27,18ZM14.5,8.23a1.28,1.28,0,0,1-.94.39,1.31,1.31,0,0,1-.94-.39,1.33,1.33,0,0,1,0-1.88A1.31,1.31,0,0,1,13.56,6a1.33,1.33,0,0,1,1.33,1.33A1.28,1.28,0,0,1,14.5,8.23Z"/></g></g></svg>