<svg xmlns="http://www.w3.org/2000/svg" viewBox="0 0 24 24"><defs><style>.cls-1{fill:#fff;opacity:0;}.cls-2{fill:#d46a42;}</style></defs><title>cog</title><g id="Calque_2" data-name="Calque 2"><g id="paramètres"><rect class="cls-1" width="24" height="24"/><path class="cls-2" d="M20,12A3.7,3.7,0,0,1,22,8.74L19.88,5.26A3.89,3.89,0,0,1,14.05,2H9.9A3.83,3.83,0,0,1,6,5.77a4,4,0,0,1-1.94-.51L2,8.74a3.7,3.7,0,0,1,0,6.52l2.09,3.48A3.89,3.89,0,0,1,9.9,22h4.15a3.83,3.83,0,0,1,3.89-3.76,4,4,0,0,1,1.94.51L22,15.26A3.7,3.7,0,0,1,20,12Zm-8,3.88A3.88,3.88,0,1,1,15.88,12,3.88,3.88,0,0,1,12,15.88Z"/></g></g></svg>