<svg xmlns="http://www.w3.org/2000/svg" viewBox="0 0 107.48 29.54"><defs><style>.cls-1{fill:#fff;}</style></defs><title>logo</title><g id="Calque_2" data-name="Calque 2"><g id="Calque_2-2" data-name="Calque 2"><g id="Calque_1-2" data-name="Calque 1"><ellipse cx="17.65" cy="13.7" rx="17.65" ry="7.98"/><path class="cls-1" d="M17.65,15.89c-3.13,0-5.32-1.15-5.32-2.19s2.19-2.19,5.32-2.19S23,12.67,23,13.7,20.78,15.89,17.65,15.89Z"/><ellipse cx="17.65" cy="13.7" rx="0.74" ry="0.33"/><path class="cls-1" d="M17.64,17.41a10.87,10.87,0,0,1-2.42,0,11,11,0,0,1-2.4-.48,7.1,7.1,0,0,1-2.19-1.12,3.36,3.36,0,0,1-.84-.92,1.82,1.82,0,0,1-.28-1.19,2.13,2.13,0,0,0,.48,1,3.93,3.93,0,0,0,.88.74,8.91,8.91,0,0,0,2.11.95,20.2,20.2,0,0,0,2.29.58C16.05,17.19,16.84,17.3,17.64,17.41Z"/><path class="cls-1" d="M17.65,19.21a19.91,19.91,0,0,1-3.62,0,18.17,18.17,0,0,1-3.56-.74A11.28,11.28,0,0,1,7.2,16.79a5.4,5.4,0,0,1-1.27-1.34,3.51,3.51,0,0,1-.38-.84,2.36,2.36,0,0,1-.09-.91,3.11,3.11,0,0,0,.22.86,3.52,3.52,0,0,0,.46.74,5.78,5.78,0,0,0,1.3,1.16A10.91,10.91,0,0,0,9,17.3a16.47,16.47,0,0,0,1.65.63,23.88,23.88,0,0,0,3.46.83C15.26,19,16.45,19.1,17.65,19.21Z"/><path d="M35.48,17.41a4.08,4.08,0,0,1-.11,1.34A5.52,5.52,0,0,1,34.81,20a8.17,8.17,0,0,1-1.87,2,14.93,14.93,0,0,1-2.31,1.45,20.86,20.86,0,0,1-2.5,1c-.42.15-.85.28-1.29.4s-.86.22-1.3.32c-.88.19-1.76.34-2.65.46a36.65,36.65,0,0,1-5.34.24,38,38,0,0,1-5.31-.61A27.18,27.18,0,0,1,7.1,23.78,16.31,16.31,0,0,1,2.47,21,8.14,8.14,0,0,1,.75,18.83a5.63,5.63,0,0,1-.47-1.3,4.38,4.38,0,0,1,0-1.35H.39a4.13,4.13,0,0,0,.18,1.26,5,5,0,0,0,.56,1.14A7.77,7.77,0,0,0,2.9,20.43a16.92,16.92,0,0,0,4.55,2.39A33.71,33.71,0,0,0,17.6,24.63a33.75,33.75,0,0,0,10.25-1.1,17.21,17.21,0,0,0,4.71-2.06,8.16,8.16,0,0,0,1.89-1.72,4.88,4.88,0,0,0,.63-1.11,3.78,3.78,0,0,0,.27-1.24Z"/><path d="M35.49,22.1a4.41,4.41,0,0,1-.21,1.34,5.3,5.3,0,0,1-.65,1.22,8.16,8.16,0,0,1-2,1.89,14.63,14.63,0,0,1-2.41,1.28,19.24,19.24,0,0,1-2.56.86L26.35,29c-.44.09-.89.16-1.33.22-.89.13-1.78.22-2.67.28A36.61,36.61,0,0,1,17,29.36a36.34,36.34,0,0,1-5.26-1,26.71,26.71,0,0,1-5-1.9,16.19,16.19,0,0,1-4.42-3.12A8.1,8.1,0,0,1,.74,21.1a5.16,5.16,0,0,1-.37-1.33,4.05,4.05,0,0,1,.07-1.35H.57A3.88,3.88,0,0,0,.66,19.7a5,5,0,0,0,.47,1.18,8.16,8.16,0,0,0,1.64,2,17.3,17.3,0,0,0,4.38,2.7,33.8,33.8,0,0,0,10,2.51,33.57,33.57,0,0,0,10.3-.38A17,17,0,0,0,32.29,26a7.89,7.89,0,0,0,2-1.58,5.26,5.26,0,0,0,.7-1.06,4.07,4.07,0,0,0,.36-1.22Z"/><path d="M24.75,11.89l3.2-1a.55.55,0,0,0,.37-.42L30.05.56a.54.54,0,0,1,.57-.44l.55,0a.53.53,0,0,1,.47.64L29.5,10.88a.51.51,0,0,1-.19.3L27.06,13a.56.56,0,0,0-.2.45h0a.52.52,0,0,1-.38.54l-.29.09a.56.56,0,0,1-.5-.11l-.48-.42,0,0-.66-.73A.54.54,0,0,1,24.75,11.89Z"/><path class="cls-1" d="M24.75,11.89l2.07-.65,1-.32a.6.6,0,0,0,.41-.3,1.1,1.1,0,0,0,.06-.26l.05-.27.7-4.26.69-4.27L30,.48A.64.64,0,0,1,30.39,0a.67.67,0,0,1,.31,0L31,0l.28,0a.69.69,0,0,1,.3.14.66.66,0,0,1,.22.6l-.22,1.07-.92,4.22-.94,4.22-.12.53a.62.62,0,0,1-.11.27,1,1,0,0,1-.2.2L28.4,12l-.85.67-.42.33a.53.53,0,0,0-.25.44.55.55,0,0,1-.21.49.58.58,0,0,1-.24.11l-.27.08a.54.54,0,0,1-.5-.15l-.41-.36c-.25-.26-.48-.54-.72-.8a.53.53,0,0,1-.13-.51A.52.52,0,0,1,24.75,11.89Zm0,0a.52.52,0,0,0-.35.37.54.54,0,0,0,.13.5c.25.27.48.55.73.8l.41.35a.53.53,0,0,0,.49.14l.26-.08a.49.49,0,0,0,.23-.11.52.52,0,0,0,.19-.46.62.62,0,0,1,.26-.48l.42-.34.83-.68.84-.69a.54.54,0,0,0,.26-.4l.11-.53L30.42,6,31.3,1.8l.22-1a.4.4,0,0,0-.13-.37.61.61,0,0,0-.18-.09L31,.27l-.27,0a.54.54,0,0,0-.22,0,.44.44,0,0,0-.29.29L30,1.6l-.79,4.25L28.4,10.1l0,.27a1.25,1.25,0,0,1-.07.26.59.59,0,0,1-.43.31l-1,.32Z"/><path d="M47.86,10.78l1.43,5.37,1.77-5.37h1.72l1.76,5.37L56,10.78h2.26l-2.48,8.31h-2.2l-1.63-4.82-1.64,4.82h-2.2L45.6,10.78Z"/><path d="M58.91,9.94h2v4.21a2.12,2.12,0,0,1,.83-.66,2.45,2.45,0,0,1,1-.17,2.06,2.06,0,0,1,1.61.59,2.21,2.21,0,0,1,.55,1.59v3.59h-2V16.24a3.31,3.31,0,0,0-.06-.7,1,1,0,0,0-.22-.41,1.07,1.07,0,0,0-1.42.08,1.25,1.25,0,0,0-.27.86v3h-2Z"/><path d="M70.6,13.44h2v5.65h-2v-.63a2.1,2.1,0,0,1-1.73.81A2.87,2.87,0,0,1,67.73,19a2.82,2.82,0,0,1-.9-.63,2.79,2.79,0,0,1-.6-1,3.32,3.32,0,0,1,0-2.35,2.92,2.92,0,0,1,.59-1,2.74,2.74,0,0,1,.89-.64,2.69,2.69,0,0,1,1.15-.24A2.31,2.31,0,0,1,70.6,14Zm-2.52,2.81a1.45,1.45,0,0,0,.1.51,1.33,1.33,0,0,0,.27.41,1.3,1.3,0,0,0,.41.28,1.32,1.32,0,0,0,1.7-.68,1.3,1.3,0,0,0,0-1,1.2,1.2,0,0,0-.28-.41,1.3,1.3,0,0,0-1.42-.28,1.3,1.3,0,0,0-.41.28,1.41,1.41,0,0,0-.27.4A1.3,1.3,0,0,0,68.08,16.25Z"/><path d="M76.19,15.1v4h-2v-4h-.66V13.44h.66v-1.7h2v1.7h1.13V15.1Z"/><path d="M81.87,14.89a2.29,2.29,0,0,0-1.08-.28.74.74,0,0,0-.44.11.32.32,0,0,0-.17.29.63.63,0,0,0,0,.16.31.31,0,0,0,.13.12.9.9,0,0,0,.27.1l.48.11a2.29,2.29,0,0,1,1.23.59,1.45,1.45,0,0,1,.41,1.08,1.92,1.92,0,0,1-.2.9,1.84,1.84,0,0,1-.55.66,2.5,2.5,0,0,1-.85.42A3.73,3.73,0,0,1,80,19.3a4.5,4.5,0,0,1-2.26-.65l.73-1.41a2.86,2.86,0,0,0,1.59.57.79.79,0,0,0,.45-.12.36.36,0,0,0,.18-.31.48.48,0,0,0,0-.18.29.29,0,0,0-.12-.13.81.81,0,0,0-.26-.11l-.44-.11a2.59,2.59,0,0,1-1.3-.55,1.42,1.42,0,0,1-.37-1,2,2,0,0,1,.18-.86,1.86,1.86,0,0,1,.51-.64,2.32,2.32,0,0,1,.8-.41,3.74,3.74,0,0,1,1-.14,4.8,4.8,0,0,1,1.82.36Z"/><path d="M84.05,19.09V10.22l6.06,6.34V10.78h1.25V19.6L85.3,13.27v5.82Z"/><path d="M98,16.76H94.26a1.64,1.64,0,0,0,.42,1,1.27,1.27,0,0,0,1,.38,1.22,1.22,0,0,0,.74-.21,3.08,3.08,0,0,0,.67-.8l1,.57a4.4,4.4,0,0,1-.5.69,2.74,2.74,0,0,1-.57.47,2.1,2.1,0,0,1-.65.28,3.55,3.55,0,0,1-.76.08,2.46,2.46,0,0,1-1.88-.75,2.85,2.85,0,0,1-.71-2,2.93,2.93,0,0,1,.69-2,2.62,2.62,0,0,1,3.67,0,2.94,2.94,0,0,1,.67,2Zm-1.24-1a1.16,1.16,0,0,0-1.22-1,1.42,1.42,0,0,0-.42.06,1.1,1.1,0,0,0-.35.2,1,1,0,0,0-.27.3,1.28,1.28,0,0,0-.18.41Z"/><path d="M100.76,16.26l-1.88-2.41h1.44l1.17,1.53,1.19-1.53h1.48l-1.94,2.41,2.25,2.83H103l-1.54-2-1.58,2H98.43Z"/><path d="M106.53,15v4.11h-1.21V15h-.51V13.85h.51V11.93h1.21v1.92h1V15Z"/></g></g></g></svg>