<svg xmlns="http://www.w3.org/2000/svg" viewBox="0 0 24 24"><defs><style>.cls-1{fill:#fff;opacity:0;}.cls-2{fill:#d46a42;}</style></defs><title>salon_4</title><g id="Calque_2" data-name="Calque 2"><g id="salon"><rect class="cls-1" width="24" height="24"/><path class="cls-2" d="M12,2A10,10,0,1,0,22,12,10,10,0,0,0,12,2ZM15,5.43a2.79,2.79,0,0,1,2.56,3,2.79,2.79,0,0,1-2.49,3,2.63,2.63,0,0,0,0-.49,3.37,3.37,0,0,0-2.53-3.41A2.61,2.61,0,0,1,15,5.43Zm-.39,5.44a2.79,2.79,0,0,1-2.56,3,2.79,2.79,0,0,1-2.56-3A2.79,2.79,0,0,1,12,7.9,2.79,2.79,0,0,1,14.56,10.87ZM9.05,5.43a2.61,2.61,0,0,1,2.42,2,3.37,3.37,0,0,0-2.53,3.41,2.63,2.63,0,0,0,0,.49,2.79,2.79,0,0,1-2.49-3A2.79,2.79,0,0,1,9.05,5.43ZM9,11.7a3.41,3.41,0,0,0,1.5,2.21,4.66,4.66,0,0,0-2.33,1.7H5A4,4,0,0,1,9,11.7ZM7.92,18.08A4,4,0,0,1,12,14.17a4,4,0,0,1,4.08,3.91Zm7.88-2.47a4.66,4.66,0,0,0-2.33-1.7A3.41,3.41,0,0,0,15,11.7,4,4,0,0,1,19,15.61Z"/></g></g></svg>