<svg xmlns="http://www.w3.org/2000/svg" viewBox="0 0 24 24"><defs><style>.cls-1{fill:#fff;opacity:0;}.cls-2{fill:#d46a42;}</style></defs><title>search_1</title><g id="Calque_2" data-name="Calque 2"><g id="search"><rect class="cls-1" width="24" height="24"/><path class="cls-2" d="M9.87,4A5.87,5.87,0,1,1,4,9.83,5.87,5.87,0,0,1,9.87,4m0-2a7.87,7.87,0,1,0,7.87,7.87A7.87,7.87,0,0,0,9.87,2Z"/><path class="cls-2" d="M22,20.77a1.18,1.18,0,0,1-.34.84,1.21,1.21,0,0,1-1.69,0L15.32,17A7.69,7.69,0,0,0,17,15.27l4.65,4.65A1.17,1.17,0,0,1,22,20.77Z"/></g></g></svg>