<svg xmlns="http://www.w3.org/2000/svg" viewBox="0 0 139.33 194.33"><defs><style>.cls-1{fill:#ead1c1;}.cls-2{fill:#f47d4a;}.cls-3,.cls-9{font-size:12px;font-family:Montserrat-Bold, Montserrat;font-weight:700;}.cls-3,.cls-7{fill:#fff;}.cls-4{letter-spacing:-0.01em;}.cls-5{letter-spacing:-0.02em;}.cls-6{letter-spacing:-0.02em;}.cls-8{fill:#f4e3d9;}</style></defs><title>tuto2</title><g id="Calque_2" data-name="Calque 2"><g id="_2" data-name="#2"><path class="cls-1" d="M97,79.5s34.33,24.17,37,42.5,5.33,60,5.33,60L69.74,194.33,51.5,159,28.67,142,69.74,78.5Z"/><ellipse id="doigt_derrière" data-name="doigt derrière" class="cls-1" cx="6" cy="122" rx="6" ry="9"/><rect x="6" width="91" height="159" rx="8.89" ry="8.89"/><rect class="cls-2" x="10" y="15" width="83" height="127"/><g id="burger"><rect x="79" y="20" width="8" height="1"/><rect x="83" y="22" width="4" height="1"/><rect x="81" y="24" width="6" height="1"/></g><rect x="20" y="46.33" width="62" height="20" rx="10" ry="10"/><text class="cls-3" transform="translate(30.38 59.96)">C<tspan class="cls-4" x="8.8" y="0">r</tspan><tspan class="cls-5" x="13.86" y="0">e</tspan><tspan x="21.25" y="0">a</tspan><tspan class="cls-6" x="28.66" y="0">t</tspan><tspan x="33.67" y="0">e</tspan></text><rect x="20" y="95" width="62" height="20" rx="10" ry="10"/><text class="cls-3" transform="translate(37.97 108.63)">Join</text><ellipse cx="20.26" cy="21.73" rx="4.46" ry="2.01"/><path class="cls-7" d="M20.26,22.28c-.79,0-1.34-.29-1.34-.55s.55-.55,1.34-.55,1.35.29,1.35.55S21.05,22.28,20.26,22.28Z"/><ellipse cx="20.26" cy="21.73" rx="0.19" ry="0.08"/><path class="cls-7" d="M20.26,22.67a4.14,4.14,0,0,1-.61,0,3.14,3.14,0,0,1-.61-.12,2.08,2.08,0,0,1-.55-.29.77.77,0,0,1-.21-.23.41.41,0,0,1-.07-.3.48.48,0,0,0,.12.26.79.79,0,0,0,.22.19,2.4,2.4,0,0,0,.54.24,3.65,3.65,0,0,0,.57.14Z"/><path class="cls-7" d="M20.26,23.12a4.61,4.61,0,0,1-.91,0,4,4,0,0,1-.9-.19,2.68,2.68,0,0,1-.83-.41,1.48,1.48,0,0,1-.32-.34,1,1,0,0,1-.09-.21.91.91,0,0,1,0-.23.79.79,0,0,0,.06.22.71.71,0,0,0,.12.18,1.52,1.52,0,0,0,.32.3,3.72,3.72,0,0,0,.39.21l.42.16a6.48,6.48,0,0,0,.87.21C19.66,23.06,20,23.09,20.26,23.12Z"/><path d="M24.77,22.67a2,2,0,0,1,0,.34,1.73,1.73,0,0,1-.14.31,2.38,2.38,0,0,1-.48.52,3.5,3.5,0,0,1-.58.36,4.91,4.91,0,0,1-.63.26l-.33.1-.33.08q-.33.08-.66.12a10.17,10.17,0,0,1-1.35.06,8.6,8.6,0,0,1-1.34-.16,6.07,6.07,0,0,1-1.3-.39,4.23,4.23,0,0,1-1.17-.7A2.1,2.1,0,0,1,16,23a1.24,1.24,0,0,1-.12-.32,1.37,1.37,0,0,1,0-.35h0a.83.83,0,0,0,0,.31,1,1,0,0,0,.14.29,2,2,0,0,0,.45.47,4.34,4.34,0,0,0,1.15.6,8.26,8.26,0,0,0,2.56.46,8.38,8.38,0,0,0,2.59-.28A4.49,4.49,0,0,0,24,23.69a2.18,2.18,0,0,0,.48-.43,1.56,1.56,0,0,0,.16-.28,1.13,1.13,0,0,0,.06-.32Z"/><path d="M24.77,23.85a1.15,1.15,0,0,1-.22.65,2,2,0,0,1-.5.47,4,4,0,0,1-.61.33,4.92,4.92,0,0,1-.65.21l-.33.08-.34.06-.67.07a8.7,8.7,0,0,1-1.35,0,10,10,0,0,1-1.33-.24A7.11,7.11,0,0,1,17.51,25a4.2,4.2,0,0,1-1.12-.79A2,2,0,0,1,16,23.6a1,1,0,0,1-.1-.34,1,1,0,0,1,0-.34h0a1.13,1.13,0,0,0,0,.32,1.34,1.34,0,0,0,.12.3,1.83,1.83,0,0,0,.42.5,4.3,4.3,0,0,0,1.1.68,9.14,9.14,0,0,0,5.13.54A4.15,4.15,0,0,0,24,24.82a2,2,0,0,0,.51-.4,1.06,1.06,0,0,0,.17-.26.91.91,0,0,0,.09-.31Z"/><path d="M22.06,21.27l.8-.25a.13.13,0,0,0,.1-.1l.43-2.51a.15.15,0,0,1,.15-.11h.14a.14.14,0,0,1,.12.16L23.25,21a.1.1,0,0,1,0,.07l-.57.46a.16.16,0,0,0-.05.11h0a.15.15,0,0,1-.1.14l-.07,0a.15.15,0,0,1-.13,0l-.12-.1v0L22,21.49A.13.13,0,0,1,22.06,21.27Z"/><path class="cls-7" d="M22.06,21.27l.52-.16.26-.08a.16.16,0,0,0,.1-.08s0,0,0-.06v-.07l.18-1.08.17-1.08.05-.27a.15.15,0,0,1,.11-.11h.22l.07,0a.16.16,0,0,1,.06.15l-.06.27-.23,1.07-.24,1.06,0,.14a.14.14,0,0,1,0,.06l-.06.05-.21.17-.22.17-.1.08a.15.15,0,0,0-.07.11.13.13,0,0,1-.05.13l-.06,0h-.07a.13.13,0,0,1-.13,0l-.1-.09L22,21.49a.11.11,0,0,1,0-.12A.13.13,0,0,1,22.06,21.27Zm0,0a.14.14,0,0,0-.06.22,1.8,1.8,0,0,0,.19.2l.1.09a.14.14,0,0,0,.12,0l.07,0,.06,0a.13.13,0,0,0,0-.12.17.17,0,0,1,.07-.12l.1-.08.22-.18.21-.17a.12.12,0,0,0,.06-.1l0-.13.22-1.08.22-1.06.06-.27a.11.11,0,0,0,0-.09l0,0H23.5a.07.07,0,0,0-.07.07l-.05.26-.2,1.08L23,20.82v.07s0,0,0,.06a.15.15,0,0,1-.11.08l-.26.08Z"/><path d="M26.7,20.21l.86,3.21,1.06-3.21h1l1.05,3.21.86-3.21h1.35l-1.48,5H30.11l-1-2.88-1,2.88H26.84l-1.49-5Z"/><path d="M33.21,25.18V19.87l3.62,3.79V20.21h.75v5.27L34,21.7v3.48Z"/><rect class="cls-8" x="66.86" y="126.1" width="58.69" height="26.17" rx="13.08" ry="13.08" transform="translate(116.75 -28.77) rotate(41.63)"/><text class="cls-9" transform="translate(44.98 82)">or</text></g></g></svg>