<svg xmlns="http://www.w3.org/2000/svg" viewBox="0 0 139.33 194.33"><defs><style>.cls-1{fill:#ead1c1;}.cls-2{fill:#f47d4a;}.cls-3{font-size:12px;font-family:Montserrat-Bold, Montserrat;font-weight:700;}.cls-10,.cls-3{fill:#fff;}.cls-4{letter-spacing:-0.02em;}.cls-5{letter-spacing:0.01em;}.cls-6{letter-spacing:0em;}.cls-7{letter-spacing:0.01em;}.cls-8,.cls-9{fill:none;stroke:#fff;stroke-miterlimit:10;}.cls-8{stroke-width:5px;}.cls-9{stroke-width:2px;}.cls-11{fill:#f4e3d9;}</style></defs><title>tuto1</title><g id="Calque_2" data-name="Calque 2"><g id="_1" data-name="#1"><path class="cls-1" d="M97,79.5s34.33,24.17,37,42.5,5.33,60,5.33,60L69.74,194.33,51.5,159,28.67,142,69.74,78.5Z"/><ellipse id="doigt_derrière" data-name="doigt derrière" class="cls-1" cx="6" cy="122" rx="6" ry="9"/><rect x="6" width="91" height="159" rx="8.89" ry="8.89"/><rect class="cls-2" x="10" y="15" width="83" height="127"/><rect x="20" y="106" width="62" height="20" rx="10" ry="10"/><g id="burger"><rect x="79" y="20" width="8" height="1"/><rect x="83" y="22" width="4" height="1"/><rect x="81" y="24" width="6" height="1"/></g><text class="cls-3" transform="translate(24.51 119.63)"><tspan class="cls-4">C</tspan><tspan x="8.57" y="0">on</tspan><tspan class="cls-5" x="24.72" y="0">n</tspan><tspan class="cls-6" x="33.08" y="0">e</tspan><tspan class="cls-7" x="40.66" y="0">c</tspan><tspan x="47.84" y="0">t</tspan></text><line class="cls-8" x1="20" y1="65.25" x2="82" y2="65.25"/><line class="cls-8" x1="20" y1="73.5" x2="82" y2="73.5"/><line class="cls-9" x1="20" y1="83.75" x2="82" y2="83.75"/><line class="cls-9" x1="20" y1="88.25" x2="82" y2="88.25"/><ellipse cx="38.01" cy="42.55" rx="9.34" ry="4.22"/><path class="cls-10" d="M38,43.71c-1.65,0-2.81-.61-2.81-1.16s1.16-1.16,2.81-1.16,2.82.61,2.82,1.16S39.67,43.71,38,43.71Z"/><ellipse cx="38.01" cy="42.55" rx="0.39" ry="0.18"/><path class="cls-10" d="M38,44.52a6.09,6.09,0,0,1-1.28,0,5.51,5.51,0,0,1-1.27-.26,3.54,3.54,0,0,1-1.16-.59,1.76,1.76,0,0,1-.45-.49,1,1,0,0,1-.15-.63,1.17,1.17,0,0,0,.26.55,2,2,0,0,0,.46.4,5.47,5.47,0,0,0,1.13.5,9.72,9.72,0,0,0,1.21.3C37.17,44.4,37.59,44.46,38,44.52Z"/><path class="cls-10" d="M38,45.47a11.09,11.09,0,0,1-1.91,0,9.5,9.5,0,0,1-1.89-.4,6,6,0,0,1-1.73-.86,3,3,0,0,1-.67-.71,1.82,1.82,0,0,1-.2-.45,1.31,1.31,0,0,1-.05-.48,1.83,1.83,0,0,0,.12.46,2,2,0,0,0,.24.39,2.88,2.88,0,0,0,.69.61,5.9,5.9,0,0,0,.82.45,8.22,8.22,0,0,0,.87.33,12.51,12.51,0,0,0,1.83.44C36.75,45.34,37.38,45.41,38,45.47Z"/><path d="M47.45,44.51a2.2,2.2,0,0,1-.06.72,2.76,2.76,0,0,1-.29.66,4.43,4.43,0,0,1-1,1.08,8.56,8.56,0,0,1-1.22.76,11,11,0,0,1-1.33.55c-.22.08-.45.14-.68.21l-.69.17c-.46.1-.93.18-1.4.24A19.09,19.09,0,0,1,38,49a20.49,20.49,0,0,1-2.81-.32,14.66,14.66,0,0,1-2.72-.82A8.7,8.7,0,0,1,30,46.4a4.4,4.4,0,0,1-.91-1.14,2.78,2.78,0,0,1-.25-.68,2.49,2.49,0,0,1,0-.72h.07a2.18,2.18,0,0,0,.1.67,2.43,2.43,0,0,0,.29.61,3.93,3.93,0,0,0,.94,1,8.69,8.69,0,0,0,2.41,1.27,18.11,18.11,0,0,0,5.37,1,17.7,17.7,0,0,0,5.42-.59,8.54,8.54,0,0,0,2.49-1.09,4.17,4.17,0,0,0,1-.91,2.56,2.56,0,0,0,.33-.58,2.1,2.1,0,0,0,.14-.66Z"/><path d="M47.46,47a2.56,2.56,0,0,1-.11.71,2.66,2.66,0,0,1-.35.64,4,4,0,0,1-1.06,1,7.75,7.75,0,0,1-1.27.68,9.42,9.42,0,0,1-1.36.45c-.23.07-.46.12-.69.17l-.7.12c-.47.07-.94.11-1.42.14a17.68,17.68,0,0,1-5.61-.59,14.23,14.23,0,0,1-2.66-1,8.86,8.86,0,0,1-2.34-1.65,4.26,4.26,0,0,1-.82-1.2,2.5,2.5,0,0,1-.2-.71,2.11,2.11,0,0,1,0-.71H29a2.17,2.17,0,0,0,.05.67,2.78,2.78,0,0,0,.25.62,4.15,4.15,0,0,0,.87,1,8.64,8.64,0,0,0,2.32,1.43,17.51,17.51,0,0,0,5.29,1.33A17.49,17.49,0,0,0,43.2,50,9.2,9.2,0,0,0,45.76,49a4.37,4.37,0,0,0,1.07-.84,3,3,0,0,0,.37-.56,2.11,2.11,0,0,0,.19-.65Z"/><path d="M41.77,41.59l1.7-.52a.28.28,0,0,0,.19-.22l.92-5.26a.28.28,0,0,1,.3-.23l.29,0a.27.27,0,0,1,.25.33l-1.13,5.34a.34.34,0,0,1-.1.16l-1.19,1a.26.26,0,0,0-.11.24h0a.28.28,0,0,1-.2.29l-.16,0a.27.27,0,0,1-.26-.06L42,42.46l0,0-.34-.39A.28.28,0,0,1,41.77,41.59Z"/><path class="cls-10" d="M41.77,41.59l1.1-.34.54-.17a.3.3,0,0,0,.22-.16.58.58,0,0,0,0-.14l0-.14.37-2.26.37-2.26.09-.56a.36.36,0,0,1,.24-.25h.3l.15,0a.39.39,0,0,1,.16.07.35.35,0,0,1,.12.32l-.12.56-.48,2.24-.5,2.23-.07.28a.3.3,0,0,1,0,.15,1,1,0,0,1-.11.1l-.45.35-.45.35-.23.18a.28.28,0,0,0-.13.23.29.29,0,0,1-.11.26.38.38,0,0,1-.13.06l-.14,0a.3.3,0,0,1-.27-.08L42,42.48c-.14-.13-.26-.28-.39-.42a.33.33,0,0,1-.07-.27A.31.31,0,0,1,41.77,41.59Zm0,0a.28.28,0,0,0-.18.2.25.25,0,0,0,.07.26l.38.43.22.18a.29.29,0,0,0,.26.08l.13,0a.52.52,0,0,0,.13-.06.29.29,0,0,0,.1-.25.32.32,0,0,1,.14-.25l.22-.18.44-.36.44-.37a.26.26,0,0,0,.14-.21l.06-.28.45-2.24.47-2.25.12-.55a.25.25,0,0,0-.07-.2.18.18,0,0,0-.1,0l-.14,0h-.26a.26.26,0,0,0-.15.16l-.1.56-.42,2.25-.41,2.25,0,.14a.43.43,0,0,1,0,.14.3.3,0,0,1-.22.16l-.55.17Z"/><path d="M51.52,39.36l1.79,6.74,2.22-6.74h2.15L59.9,46.1l1.79-6.74h2.84L61.42,49.79H58.65l-2-6-2,6H51.79L48.68,39.36Z"/><path d="M65.15,49.79V38.66l7.61,8V39.37h1.57V50.42l-7.6-7.93v7.3Z"/><rect class="cls-11" x="66.86" y="126.1" width="58.69" height="26.17" rx="13.08" ry="13.08" transform="translate(116.75 -28.77) rotate(41.63)"/></g></g></svg>